<svg width="55" height="65" viewBox="0 0 55 65" fill="none" xmlns="http://www.w3.org/2000/svg">
<circle cx="27.5" cy="32.5" r="27.5" fill="#93DA49"/>
<path d="M23.872 19.8H30.568L29.452 36.252H24.988L23.872 19.8ZM27.22 45.288C26.236 45.288 25.408 44.976 24.736 44.352C24.088 43.704 23.764 42.924 23.764 42.012C23.764 41.1 24.088 40.344 24.736 39.744C25.384 39.12 26.212 38.808 27.22 38.808C28.228 38.808 29.056 39.12 29.704 39.744C30.352 40.344 30.676 41.1 30.676 42.012C30.676 42.924 30.34 43.704 29.668 44.352C29.02 44.976 28.204 45.288 27.22 45.288Z" fill="white"/>
</svg>
